<?xml version="1.0" encoding="UTF-8"?>
<!-- Generated by Pixelmator Pro 3.2.3 -->
<svg viewBox="0 0 450 450" xmlns="http://www.w3.org/2000/svg">
    <g id="Group">
        <g id="g1">
            <path id="Path" fill="#80c5ff" stroke="#333333" stroke-width="1.999145" stroke-linecap="round" stroke-linejoin="round" d="M -115.829033 551.509277 L -76.845726 551.477051 L -76.813507 590.460388 L -115.796822 590.492615 Z"/>
            <text id="80c5ffff" transform="matrix(1 -0.000826 0.000826 1 -0.473474 0.008046)" xml:space="preserve" x="-61" y="578" font-family="Dank Mono" font-size="27.988024" font-weight="700" fill="#000000">#80c5ffff</text>
        </g>
    </g>
    <g id="g2">
        <linearGradient id="linearGradient1" x1="245.896657" y1="219.312834" x2="423.820525" y2="420.226865" gradientUnits="userSpaceOnUse" gradientTransform="matrix(1 -0.000826 0.000826 1 -0.222834 0.235905)">
            <stop offset="1e-05" stop-color="#61a5b8" stop-opacity="1"/>
            <stop offset="1" stop-color="#ebf7f9" stop-opacity="0"/>
        </linearGradient>
        <path id="path1" fill="url(#linearGradient1)" stroke="none" d="M 224.848267 200.370972 L 345.853455 269.241455 L 225.962646 339.310638 Z"/>
        <linearGradient id="linearGradient2" x1="66.944762" y1="270.390396" x2="419.793782" y2="127.451558" gradientUnits="userSpaceOnUse" gradientTransform="matrix(1 -0.000826 0.000826 1 -0.194462 0.136507)">
            <stop offset="1e-05" stop-color="#328e9e" stop-opacity="1"/>
            <stop offset="1" stop-color="#ffffff" stop-opacity="0"/>
        </linearGradient>
        <path id="path2" fill="url(#linearGradient2)" stroke="none" d="M 104.842644 131.499573 L 224.848267 200.370972 L 225.362885 339.311157 L 105.357262 270.439758 Z"/>
        <linearGradient id="linearGradient3" x1="104.842176" y1="131.40049" x2="442.697611" y2="72.425725" gradientUnits="userSpaceOnUse" gradientTransform="matrix(1 -0.000826 0.000826 1 -0.108088 0.185792)">
            <stop offset="1e-05" stop-color="#328e9e" stop-opacity="1"/>
            <stop offset="1" stop-color="#ffffff" stop-opacity="0"/>
        </linearGradient>
        <path id="path3" fill="url(#linearGradient3)" stroke="none" d="M 224.733459 61.430389 L 344.739899 131.301361 L 224.848267 200.370972 L 104.842644 131.499573 Z"/>
        <path id="path4" fill="none" stroke="#d3f4f4" stroke-width="4.997861" stroke-opacity="0.61" stroke-linecap="round" stroke-linejoin="round" d="M 104.842644 131.499573 L 224.848267 200.370972 L 344.739899 131.301361 L 224.733459 61.430389 L 104.842644 131.499573 L 104.957451 270.440094 L 224.963074 339.311462 L 344.853882 269.24231 L 223.848694 200.371796 L 224.363312 339.311951 L 223.848694 200.371796 L 103.843071 131.500427"/>
    </g>
    <text id="Decora" transform="matrix(1 -0.000826 0.000826 1 -0.330448 0.186057)" xml:space="preserve" x="132" y="418" font-family="Amazing Grotesk" font-size="55.976048" font-weight="700" fill="#000000">Decora</text>
</svg>
