<!-- Created with Inkscape (http://www.inkscape.org/) -->
<svg version="1.1" viewBox="0 0 500 500" xmlns="http://www.w3.org/2000/svg">
<defs>
<linearGradient id="linearGradient51536" x1="416" x2="594" y1="246" y2="447" gradientUnits="userSpaceOnUse">
<stop stop-color="#61a5b8" offset="0"/>
<stop stop-color="#ebf7f9" stop-opacity="0" offset="1"/>
</linearGradient>
<linearGradient id="linearGradient51545" x1="237" x2="590" y1="297" y2="154" gradientUnits="userSpaceOnUse">
<stop stop-color="#328e9e" offset="0"/>
<stop stop-color="#fff" stop-opacity="0" offset="1"/>
</linearGradient>
<linearGradient id="linearGradient55183" x1="275" x2="613" y1="158" y2="99" gradientUnits="userSpaceOnUse">
<stop stop-color="#328e9e" offset="0"/>
<stop stop-color="#fff" stop-opacity="0" offset="1"/>
</linearGradient>
</defs>
<g transform="translate(-103 -166)">
<rect transform="translate(-96 -47)" x="199" y="213" width="500" height="500" rx="50" ry="50" fill="#fff" stroke="#1a1a1a" stroke-width=".2"/>
<g transform="matrix(1 0 0 1 -43 146)" stroke-opacity=".85">
<path d="m395 227 121 69-120 70z" fill="url(#linearGradient51536)"/>
<path d="m275 158 120 69 0.4 139-120-69z" fill="url(#linearGradient51545)"/>
<path d="m395 88 120 70-120 69-120-69z" fill="url(#linearGradient55183)"/>
<path transform="translate(67,-573)" d="m208 731 120 69 120-69-120-70-120 70v139l120 69 120-70-121-69 0.4 139-0.4-139-120-69" fill="none" stroke="#d3f4f4" stroke-opacity=".61" stroke-width="5"/>
</g>
<text x="260.92026" y="601.02954" font-family="'Geeza Pro'" font-size="56px" font-weight="bold" word-spacing="0px" style="line-height:1.25" xml:space="preserve"><tspan x="260.92026" y="601.02954" font-family="'Amazing Grotesk'" font-size="56px" font-weight="bold">Decora</tspan></text>
</g>
</svg>
